<?xml version="1.0" encoding="UTF-8"?>
<svg width="700pt" height="700pt" version="1.1" viewBox="0 0 700 700" xmlns="http://www.w3.org/2000/svg" xmlns:xlink="http://www.w3.org/1999/xlink">
 <defs>
  <symbol id="w" overflow="visible">
   <path d="m18.562-1.1094c-0.94922 0.5-1.9453 0.875-2.9844 1.125-1.043 0.25-2.125 0.375-3.25 0.375-3.3672 0-6.0312-0.9375-8-2.8125-1.9688-1.8828-2.9531-4.4375-2.9531-7.6562 0-3.2266 0.98438-5.7852 2.9531-7.6719 1.9688-1.8828 4.6328-2.8281 8-2.8281 1.125 0 2.207 0.13281 3.25 0.39062 1.0391 0.25 2.0352 0.625 2.9844 1.125v4.1719c-0.96094-0.65625-1.9062-1.1328-2.8438-1.4375-0.9375-0.3125-1.9297-0.46875-2.9688-0.46875-1.8555 0-3.3203 0.60156-4.3906 1.7969-1.0625 1.1875-1.5938 2.8281-1.5938 4.9219 0 2.0859 0.53125 3.7188 1.5938 4.9062 1.0703 1.1875 2.5352 1.7812 4.3906 1.7812 1.0391 0 2.0312-0.14844 2.9688-0.45312 0.9375-0.30078 1.8828-0.78516 2.8438-1.4531z"/>
  </symbol>
  <symbol id="c" overflow="visible">
   <path d="m13.594-11.031c-0.42969-0.19531-0.85547-0.34375-1.2812-0.4375-0.41797-0.09375-0.83594-0.14062-1.25-0.14062-1.25 0-2.2148 0.40234-2.8906 1.2031-0.66797 0.79297-1 1.9336-1 3.4219v6.9844h-4.8438v-15.156h4.8438v2.4844c0.625-0.98828 1.3359-1.7109 2.1406-2.1719 0.8125-0.45703 1.7812-0.6875 2.9062-0.6875 0.16406 0 0.34375 0.011719 0.53125 0.03125 0.1875 0.011719 0.46094 0.039062 0.82812 0.078125z"/>
  </symbol>
  <symbol id="a" overflow="visible">
   <path d="m17.453-7.625v1.3906h-11.328c0.125 1.1367 0.53516 1.9922 1.2344 2.5625 0.70703 0.5625 1.6914 0.84375 2.9531 0.84375 1.0195 0 2.0625-0.14844 3.125-0.45312 1.0703-0.30078 2.1758-0.75781 3.3125-1.375v3.7344c-1.1562 0.4375-2.3086 0.76562-3.4531 0.98438-1.1484 0.21875-2.293 0.32812-3.4375 0.32812-2.7422 0-4.8711-0.69531-6.3906-2.0938-1.5234-1.3945-2.2812-3.3477-2.2812-5.8594 0-2.4766 0.74219-4.4258 2.2344-5.8438 1.5-1.4141 3.5547-2.125 6.1719-2.125 2.3828 0 4.2891 0.71875 5.7188 2.1562 1.4258 1.4375 2.1406 3.3555 2.1406 5.75zm-4.9688-1.6094c0-0.91406-0.27344-1.6562-0.8125-2.2188-0.53125-0.5625-1.2344-0.84375-2.1094-0.84375-0.9375 0-1.6992 0.26562-2.2812 0.79688-0.58594 0.52344-0.94922 1.2773-1.0938 2.2656z"/>
  </symbol>
  <symbol id="e" overflow="visible">
   <path d="m9.125-6.8281c-1.0117 0-1.7734 0.17188-2.2812 0.51562-0.51172 0.34375-0.76562 0.85156-0.76562 1.5156 0 0.61719 0.20312 1.1016 0.60938 1.4531 0.41406 0.34375 0.98828 0.51562 1.7188 0.51562 0.90625 0 1.6719-0.32812 2.2969-0.98438s0.9375-1.4727 0.9375-2.4531v-0.5625zm7.4062-1.8281v8.6562h-4.8906v-2.25c-0.64844 0.92969-1.375 1.6016-2.1875 2.0156s-1.8047 0.625-2.9688 0.625c-1.5742 0-2.8516-0.45703-3.8281-1.375-0.98047-0.91406-1.4688-2.1016-1.4688-3.5625 0-1.7812 0.60938-3.082 1.8281-3.9062 1.2266-0.83203 3.1484-1.25 5.7656-1.25h2.8594v-0.375c0-0.76953-0.30469-1.332-0.90625-1.6875-0.60547-0.35156-1.5469-0.53125-2.8281-0.53125-1.043 0-2.0117 0.10547-2.9062 0.3125-0.88672 0.19922-1.7148 0.50781-2.4844 0.92188v-3.6875c1.0391-0.25 2.082-0.44141 3.125-0.57812 1.0508-0.13281 2.0977-0.20312 3.1406-0.20312 2.7383 0 4.7109 0.54297 5.9219 1.625 1.2188 1.0742 1.8281 2.8242 1.8281 5.25z"/>
  </symbol>
  <symbol id="d" overflow="visible">
   <path d="m7.625-19.469v4.3125h4.9844v3.4688h-4.9844v6.4219c0 0.71094 0.13281 1.1875 0.40625 1.4375 0.28125 0.24219 0.83594 0.35938 1.6719 0.35938h2.4844v3.4688h-4.1406c-1.918 0-3.2773-0.39453-4.0781-1.1875-0.79297-0.80078-1.1875-2.1602-1.1875-4.0781v-6.4219h-2.4219v-3.4688h2.4219v-4.3125z"/>
  </symbol>
  <symbol id="l" overflow="visible">
   <path d="m12.641-12.938v-8.125h4.875v21.062h-4.875v-2.1875c-0.66797 0.88672-1.4023 1.5391-2.2031 1.9531-0.80469 0.41406-1.7344 0.625-2.7969 0.625-1.8672 0-3.3984-0.73828-4.5938-2.2188-1.1992-1.4883-1.7969-3.3984-1.7969-5.7344 0-2.3438 0.59766-4.2539 1.7969-5.7344 1.1953-1.4883 2.7266-2.2344 4.5938-2.2344 1.0508 0 1.9766 0.21484 2.7812 0.64062 0.8125 0.41797 1.5508 1.0703 2.2188 1.9531zm-3.1875 9.8125c1.0312 0 1.8164-0.37891 2.3594-1.1406 0.55078-0.75781 0.82812-1.8594 0.82812-3.2969 0-1.4453-0.27734-2.5469-0.82812-3.2969-0.54297-0.75781-1.3281-1.1406-2.3594-1.1406s-1.8242 0.38281-2.375 1.1406c-0.54297 0.75-0.8125 1.8516-0.8125 3.2969 0 1.4375 0.26953 2.5391 0.8125 3.2969 0.55078 0.76172 1.3438 1.1406 2.375 1.1406z"/>
  </symbol>
  <symbol id="k" overflow="visible">
   <path d="m10.391-3.125c1.0391 0 1.832-0.37891 2.375-1.1406 0.55078-0.75781 0.82812-1.8594 0.82812-3.2969 0-1.4453-0.27734-2.5469-0.82812-3.2969-0.54297-0.75781-1.3359-1.1406-2.375-1.1406-1.0312 0-1.8281 0.38281-2.3906 1.1406-0.55469 0.76172-0.82812 1.8594-0.82812 3.2969s0.27344 2.5391 0.82812 3.2969c0.5625 0.76172 1.3594 1.1406 2.3906 1.1406zm-3.2188-9.8125c0.66406-0.88281 1.4062-1.5352 2.2188-1.9531 0.8125-0.42578 1.7422-0.64062 2.7969-0.64062 1.875 0 3.4102 0.74609 4.6094 2.2344 1.1953 1.4805 1.7969 3.3906 1.7969 5.7344 0 2.3359-0.60156 4.2461-1.7969 5.7344-1.1992 1.4805-2.7344 2.2188-4.6094 2.2188-1.0547 0-1.9844-0.21094-2.7969-0.625s-1.5547-1.0664-2.2188-1.9531v2.1875h-4.8438v-21.062h4.8438z"/>
  </symbol>
  <symbol id="j" overflow="visible">
   <path d="m0.34375-15.156h4.8438l4.0625 10.281 3.4688-10.281h4.8438l-6.375 16.594c-0.63672 1.6875-1.3828 2.8633-2.2344 3.5312-0.85547 0.67578-1.9805 1.0156-3.375 1.0156h-2.7969v-3.1875h1.5156c0.8125 0 1.4062-0.13281 1.7812-0.39062 0.375-0.26172 0.66406-0.73047 0.875-1.4062l0.14062-0.42188z"/>
  </symbol>
  <symbol id="i" overflow="visible">
   <path d="m2.5469-20.203h6.625l4.6094 10.812 4.625-10.812h6.625v20.203h-4.9375v-14.781l-4.6562 10.891h-3.2969l-4.6562-10.891v14.781h-4.9375z"/>
  </symbol>
  <symbol id="h" overflow="visible">
   <path d="m2.3281-21.062h4.8438v11.469l5.5781-5.5625h5.625l-7.4062 6.9531 8 8.2031h-5.875l-5.9219-6.3281v6.3281h-4.8438z"/>
  </symbol>
  <symbol id="g" overflow="visible">
   <path d="m2.5469-20.203h8.6406c2.5703 0 4.5469 0.57422 5.9219 1.7188 1.375 1.1367 2.0625 2.7617 2.0625 4.875 0 2.1172-0.6875 3.7461-2.0625 4.8906-1.375 1.1367-3.3516 1.7031-5.9219 1.7031h-3.4375v7.0156h-5.2031zm5.2031 3.7656v5.6562h2.8906c1.0078 0 1.7891-0.24219 2.3438-0.73438 0.55078-0.5 0.82812-1.1953 0.82812-2.0938 0-0.90625-0.27734-1.6016-0.82812-2.0938-0.55469-0.48828-1.3359-0.73438-2.3438-0.73438z"/>
  </symbol>
  <symbol id="b" overflow="visible">
   <path d="m9.5469-12.062c-1.0742 0-1.8984 0.38672-2.4688 1.1562-0.5625 0.77344-0.84375 1.8867-0.84375 3.3438 0 1.4492 0.28125 2.5586 0.84375 3.3281 0.57031 0.77344 1.3945 1.1562 2.4688 1.1562 1.0508 0 1.8516-0.38281 2.4062-1.1562 0.5625-0.76953 0.84375-1.8789 0.84375-3.3281 0-1.457-0.28125-2.5703-0.84375-3.3438-0.55469-0.76953-1.3555-1.1562-2.4062-1.1562zm0-3.4688c2.6016 0 4.6406 0.71094 6.1094 2.125 1.4688 1.4062 2.2031 3.3555 2.2031 5.8438 0 2.4922-0.73438 4.4375-2.2031 5.8438s-3.5078 2.1094-6.1094 2.1094c-2.625 0-4.6797-0.70312-6.1562-2.1094-1.4688-1.4062-2.2031-3.3516-2.2031-5.8438 0-2.4883 0.73438-4.4375 2.2031-5.8438 1.4766-1.4141 3.5312-2.125 6.1562-2.125z"/>
  </symbol>
  <symbol id="v" overflow="visible">
   <path d="m2.3281-21.062h4.8438v21.062h-4.8438z"/>
  </symbol>
  <symbol id="u" overflow="visible">
   <path d="m0.42188-15.156h4.8438l3.7812 10.469 3.75-10.469h4.8594l-5.9688 15.156h-5.3125z"/>
  </symbol>
  <symbol id="t" overflow="visible">
   <path d="m2.3281-15.156h4.8438v15.156h-4.8438zm0-5.9062h4.8438v3.9531h-4.8438z"/>
  </symbol>
  <symbol id="f" overflow="visible">
   <path d="m14.578-14.688v3.9531c-0.65625-0.44531-1.3203-0.78125-1.9844-1-0.66797-0.21875-1.3555-0.32812-2.0625-0.32812-1.3555 0-2.4141 0.39844-3.1719 1.1875-0.75 0.79297-1.125 1.8984-1.125 3.3125 0 1.418 0.375 2.5234 1.125 3.3125 0.75781 0.78125 1.8164 1.1719 3.1719 1.1719 0.75781 0 1.4766-0.10938 2.1562-0.32812 0.67578-0.22656 1.3047-0.5625 1.8906-1v3.9531c-0.76172 0.28125-1.5312 0.48828-2.3125 0.625-0.78125 0.14453-1.5625 0.21875-2.3438 0.21875-2.7422 0-4.8828-0.69531-6.4219-2.0938-1.543-1.4062-2.3125-3.3594-2.3125-5.8594s0.76953-4.4531 2.3125-5.8594c1.5391-1.4062 3.6797-2.1094 6.4219-2.1094 0.78906 0 1.5703 0.074219 2.3438 0.21875 0.76953 0.13672 1.5391 0.34375 2.3125 0.625z"/>
  </symbol>
  <symbol id="s" overflow="visible">
   <path d="m12.297-21.062v3.1875h-2.6719c-0.6875 0-1.168 0.125-1.4375 0.375-0.27344 0.24219-0.40625 0.66797-0.40625 1.2812v1.0625h4.1406v3.4688h-4.1406v11.688h-4.8438v-11.688h-2.4062v-3.4688h2.4062v-1.0625c0-1.6445 0.45703-2.8633 1.375-3.6562 0.92578-0.78906 2.3516-1.1875 4.2812-1.1875z"/>
  </symbol>
  <symbol id="r" overflow="visible">
   <path d="m16.375-12.641c0.61328-0.9375 1.3438-1.6484 2.1875-2.1406 0.84375-0.5 1.7695-0.75 2.7812-0.75 1.7383 0 3.0625 0.54297 3.9688 1.625 0.91406 1.0742 1.375 2.6328 1.375 4.6719v9.2344h-4.875v-7.9062c0.007812-0.11328 0.015625-0.23438 0.015625-0.35938 0.007813-0.125 0.015625-0.30469 0.015625-0.54688 0-1.0703-0.16406-1.8477-0.48438-2.3281-0.3125-0.48828-0.82031-0.73438-1.5156-0.73438-0.91797 0-1.6328 0.38281-2.1406 1.1406-0.5 0.76172-0.75781 1.8594-0.76562 3.2969v7.4375h-4.875v-7.9062c0-1.6758-0.14844-2.7539-0.4375-3.2344-0.29297-0.48828-0.80859-0.73438-1.5469-0.73438-0.92969 0-1.6484 0.38672-2.1562 1.1562-0.5 0.76172-0.75 1.8516-0.75 3.2656v7.4531h-4.875v-15.156h4.875v2.2188c0.59375-0.85156 1.2734-1.5 2.0469-1.9375 0.76953-0.4375 1.625-0.65625 2.5625-0.65625 1.0391 0 1.9609 0.25781 2.7656 0.76562 0.80078 0.5 1.4102 1.2109 1.8281 2.125z"/>
  </symbol>
  <symbol id="q" overflow="visible">
   <path d="m17.562-9.2344v9.2344h-4.8594v-7.0312c0-1.332-0.03125-2.2422-0.09375-2.7344-0.0625-0.5-0.16797-0.86719-0.3125-1.1094-0.1875-0.3125-0.44531-0.55469-0.76562-0.73438-0.32422-0.17578-0.69531-0.26562-1.1094-0.26562-1.0117 0-1.8086 0.39062-2.3906 1.1719-0.57422 0.78125-0.85938 1.8672-0.85938 3.25v7.4531h-4.8438v-21.062h4.8438v8.125c0.72656-0.88281 1.5039-1.5352 2.3281-1.9531 0.82031-0.42578 1.7266-0.64062 2.7188-0.64062 1.75 0 3.0781 0.54297 3.9844 1.625 0.90625 1.0742 1.3594 2.6328 1.3594 4.6719z"/>
  </symbol>
  <symbol id="p" overflow="visible">
   <path d="m2.5469-20.203h5.8125l7.3594 13.859v-13.859h4.9375v20.203h-5.8281l-7.3438-13.859v13.859h-4.9375z"/>
  </symbol>
  <symbol id="o" overflow="visible">
   <path d="m2.1719-5.9062v-9.25h4.8594v1.5156c0 0.82422-0.007812 1.8555-0.015625 3.0938v2.4844c0 1.2188 0.03125 2.1016 0.09375 2.6406 0.0625 0.53125 0.17188 0.91797 0.32812 1.1562 0.19531 0.3125 0.45312 0.55859 0.76562 0.73438 0.32031 0.16797 0.69141 0.25 1.1094 0.25 1.0078 0 1.8008-0.38281 2.375-1.1562 0.58203-0.78125 0.875-1.8594 0.875-3.2344v-7.4844h4.8438v15.156h-4.8438v-2.1875c-0.73047 0.88672-1.5078 1.5391-2.3281 1.9531-0.8125 0.41406-1.7148 0.625-2.7031 0.625-1.75 0-3.0859-0.53516-4-1.6094-0.90625-1.0703-1.3594-2.6328-1.3594-4.6875z"/>
  </symbol>
  <symbol id="n" overflow="visible">
   <path d="m17.562-9.2344v9.2344h-4.8594v-7.0625c0-1.3125-0.03125-2.2109-0.09375-2.7031-0.0625-0.5-0.16797-0.86719-0.3125-1.1094-0.1875-0.3125-0.44531-0.55469-0.76562-0.73438-0.32422-0.17578-0.69531-0.26562-1.1094-0.26562-1.0117 0-1.8086 0.39062-2.3906 1.1719-0.57422 0.78125-0.85938 1.8672-0.85938 3.25v7.4531h-4.8438v-15.156h4.8438v2.2188c0.72656-0.88281 1.5039-1.5352 2.3281-1.9531 0.82031-0.42578 1.7266-0.64062 2.7188-0.64062 1.75 0 3.0781 0.54297 3.9844 1.625 0.90625 1.0742 1.3594 2.6328 1.3594 4.6719z"/>
  </symbol>
  <symbol id="m" overflow="visible">
   <path d="m2.3281-15.156h4.8438v14.891c0 2.0312-0.49219 3.5781-1.4688 4.6406-0.96875 1.0703-2.3828 1.6094-4.2344 1.6094h-2.3906v-3.1875h0.84375c0.91406 0 1.5469-0.21094 1.8906-0.625 0.34375-0.40625 0.51562-1.2188 0.51562-2.4375zm0-5.9062h4.8438v3.9531h-4.8438z"/>
  </symbol>
 </defs>
 <g>
  <path d="m325.55 136.9c0.51953 0 1.0469-0.14844 1.5117-0.46484 4.7852-3.2578 9.6797-6.4336 14.582-9.5938 2.5664 6.7344 5.2539 13.43 8.0469 20.086l-9.1758 5.6406c-1.2617 0.77734-1.6562 2.4336-0.875 3.6953 0.50391 0.82422 1.3828 1.2773 2.2891 1.2773 0.48047 0 0.96484-0.125 1.4062-0.39453l8.5039-5.2305c3.1328 7.2812 6.4062 14.492 9.793 21.641l-9.0312 5.5547c-1.2617 0.77344-1.6602 2.4336-0.87891 3.6992 0.50391 0.82422 1.3906 1.2773 2.293 1.2773 0.47656 0 0.96484-0.12891 1.4023-0.39844l8.5664-5.2695c1.5234 3.1484 2.9883 6.3281 4.5625 9.4453 0.47266 0.9375 1.4141 1.4766 2.3984 1.4766 0.40625 0 0.82031-0.089844 1.2109-0.28516 1.3242-0.66797 1.8594-2.2852 1.1875-3.6094-1.6406-3.2539-3.1719-6.5703-4.7617-9.8516l13.828-8.5117c1.2656-0.77734 1.6562-2.4336 0.87891-3.6992-0.77734-1.2656-2.4375-1.6562-3.6992-0.87891l-13.355 8.2188c-3.3828-7.1523-6.6562-14.367-9.7695-21.656l13.859-8.5234c1.2617-0.77734 1.6602-2.4336 0.87891-3.6992-0.77734-1.2695-2.4297-1.6602-3.6953-0.88281l-13.172 8.1055c-2.8008-6.6992-5.4844-13.438-8.0586-20.215 5.6094-3.543 11.262-7.0273 16.941-10.383 1.2773-0.75781 1.7031-2.4023 0.94922-3.6797-0.75391-1.2773-2.3945-1.6953-3.6836-0.95312-5.3945 3.1914-10.758 6.5078-16.09 9.8633-1.5391-4.1562-3.1094-8.3047-4.5586-12.484-0.48828-1.4023-2.0156-2.1484-3.4219-1.6602-1.3984 0.48438-2.1484 2.0156-1.6562 3.4219 1.582 4.5781 3.2969 9.125 4.9922 13.676-5.293 3.3906-10.559 6.8281-15.719 10.344-1.2227 0.82812-1.543 2.5039-0.70312 3.7305 0.51953 0.76562 1.3672 1.1719 2.2227 1.1719zm192.86 198.12c26.203-35.18 58.809-78.965 40.891-164.18-9.5195-45.254-34.832-79.672-75.234-102.3-40.426-22.637-85.215-27.387-115.67-27.387-22.59 0-44.668 2.625-63.848 7.6016-45.344 11.758-86.473 43.648-110.02 85.309-18.172 32.16-23.258 66.461-14.316 96.594 0.6875 2.3125 0.27344 4.8828-1.125 7.0469-2.5 3.8594-6.2422 9.1016-10.586 15.164-11.691 16.34-26.246 36.68-31.586 51.246-2.1445 5.8594-1.7266 12.395 1.1562 17.93 2.8828 5.5352 7.9922 9.625 13.926 11.195 1.207 0.36328 6.9336 2.5508 10.012 3.7227 3.1797 1.2188 5.9453 2.2578 6.6758 2.4922 7.9492 2.5273 7.5078 35.598 7.25 55.348-0.066406 5.082-0.13281 10.203-0.13281 15.262 0 26.023 16.898 41.566 45.211 41.566 8.0312 0 15.184-1.1875 19.773-2.1875 3.8242-0.82812 7.6133-1.2734 10.961-1.2734 13.598 0 19.137 6.1797 19.137 21.316 0 4.5625 0.12891 8.7109 0.38281 12.328 0.76172 10.941 7.9062 20.574 18.207 24.555 8.1797 3.1445 38.551 13.426 85.887 13.426h0.003906c38.48 0 77.074-6.8242 114.71-20.277 5.2969-1.8945 9.5312-5.9805 11.629-11.211 2.1055-5.2461 1.8594-11.148-0.67578-16.199-6.6758-13.277-22.32-44.375-11.441-86.668 4.5977-17.883 15.824-32.961 28.824-50.422zm-314.06 10.062c0-3.1055 2.5156-5.625 5.6211-5.625s5.625 2.5195 5.625 5.625c0 3.1055-2.5195 5.625-5.625 5.625s-5.6211-2.5195-5.6211-5.625zm11.246 66.551c-3.1055 0-5.625-2.5195-5.625-5.625s2.5195-5.6289 5.625-5.6289 5.6289 2.5234 5.6289 5.6289-2.5234 5.625-5.6289 5.625zm0-30.465c-3.1055 0-5.625-2.5156-5.625-5.625 0-3.1055 2.5195-5.6211 5.625-5.6211s5.6289 2.5156 5.6289 5.6211c0 3.1094-2.5234 5.625-5.6289 5.625zm18.773-43.078c0-3.1055 2.5156-5.625 5.6211-5.625 3.1133 0 5.6289 2.5195 5.6289 5.625s-2.5156 5.6289-5.6289 5.6289c-3.1055 0-5.6211-2.5234-5.6211-5.6289zm11.129 24.301c3.1055 0 5.6211 2.5195 5.6211 5.625s-2.5156 5.6289-5.6211 5.6289c-3.1133 0-5.6289-2.5234-5.6289-5.6289s2.5156-5.625 5.6289-5.625zm0.12109 41.176c-3.1055 0-5.6289-2.5195-5.6289-5.625 0-3.1055 2.5234-5.6211 5.6289-5.6211 3.1055 0 5.625 2.5156 5.625 5.6211 0 3.1055-2.5195 5.625-5.625 5.625zm-0.96484-137.45c-21.227 2.0156-35.371-7.6367-28.973-19.273 6.2969-16.793-22.047-40.852 9.4961-36.609 27.965 3.7617 42.828 12.797 50.688 21.891 5.1055 5.9102 4.1953 13.871-0.23438 19.059h0.007813s-0.09375 0.11719-0.11719 0.14062c-0.60547 0.78125-10.312 12.844-30.867 14.793zm30.738 97.215c-3.1094 0-5.6211-2.5156-5.6211-5.6211s2.5117-5.625 5.6211-5.625c3.1055 0 5.625 2.5195 5.625 5.625s-2.5195 5.6211-5.625 5.6211zm5.875 25.25c0 3.1094-2.5195 5.6289-5.6289 5.6289-3.1055 0-5.625-2.5195-5.625-5.6289 0-3.1055 2.5195-5.625 5.625-5.625 3.1094 0 5.6289 2.5195 5.6289 5.625zm-16.875-61.75c0-3.1055 2.5156-5.6211 5.6211-5.6211 3.1133 0 5.625 2.5156 5.625 5.6211 0 3.1133-2.5117 5.6289-5.625 5.6289-3.1055 0-5.6211-2.5156-5.6211-5.6289zm218.1 153.76c-35.199 12.496-71.238 18.832-107.13 18.832-34.82 0-63.414-6.2344-78.562-12.062-2.9492-1.1406-4.9961-3.875-5.2148-6.9648-0.21875-3.1484-0.33203-6.8203-0.33203-10.914 0-21.742-10.273-36.148-27.996-40.363 44.168-14.156 73.559-48.828 65-95.691-6.8398-37.438-38.77-70.379-29.57-109.31 7.3828-31.242 15.18-70.855 1.0234-101.52-6.3945-13.852-19.465-25.207-35.539-23.934-7.6328 0.60156-14.617 3.1367-21.004 6.8867 19.16-17.609 42.41-30.844 66.492-37.086 17.539-4.5469 37.844-6.9492 58.738-6.9492 34.508 0 148.82 8.1875 170.96 113.51 4.2305 20.113 5.3984 37.402 4.4258 52.676h-220.77c-5.9375 0-10.75 4.8164-10.75 10.754s4.8125 10.75 10.75 10.75h217.76c-6.7891 30.633-22.875 52.391-38.707 73.645-13.691 18.387-26.617 35.75-32.215 57.516-12.598 48.996 4.7656 84.559 12.637 100.23z" fill-rule="evenodd"/>
  <use x="72.773438" y="643.167969" xlink:href="#w"/>
  <use x="93.117188" y="643.167969" xlink:href="#c"/>
  <use x="106.789062" y="643.167969" xlink:href="#a"/>
  <use x="125.589844" y="643.167969" xlink:href="#e"/>
  <use x="144.300781" y="643.167969" xlink:href="#d"/>
  <use x="157.550781" y="643.167969" xlink:href="#a"/>
  <use x="176.355469" y="643.167969" xlink:href="#l"/>
  <use x="205.851562" y="643.167969" xlink:href="#k"/>
  <use x="225.695312" y="643.167969" xlink:href="#j"/>
  <use x="253.417969" y="643.167969" xlink:href="#i"/>
  <use x="281.003906" y="643.167969" xlink:href="#e"/>
  <use x="299.710938" y="643.167969" xlink:href="#c"/>
  <use x="313.382812" y="643.167969" xlink:href="#a"/>
  <use x="332.1875" y="643.167969" xlink:href="#h"/>
  <use x="360.273438" y="643.167969" xlink:href="#g"/>
  <use x="380.59375" y="643.167969" xlink:href="#b"/>
  <use x="399.636719" y="643.167969" xlink:href="#v"/>
  <use x="409.140625" y="643.167969" xlink:href="#e"/>
  <use x="427.847656" y="643.167969" xlink:href="#h"/>
  <use x="446.285156" y="643.167969" xlink:href="#b"/>
  <use x="465.332031" y="643.167969" xlink:href="#u"/>
  <use x="483.402344" y="643.167969" xlink:href="#t"/>
  <use x="492.90625" y="643.167969" xlink:href="#f"/>
  <use x="72.773438" y="670.890625" xlink:href="#s"/>
  <use x="84.832031" y="670.890625" xlink:href="#c"/>
  <use x="98.503906" y="670.890625" xlink:href="#b"/>
  <use x="117.550781" y="670.890625" xlink:href="#r"/>
  <use x="156.089844" y="670.890625" xlink:href="#d"/>
  <use x="169.339844" y="670.890625" xlink:href="#q"/>
  <use x="189.078125" y="670.890625" xlink:href="#a"/>
  <use x="217.53125" y="670.890625" xlink:href="#p"/>
  <use x="240.734375" y="670.890625" xlink:href="#b"/>
  <use x="259.777344" y="670.890625" xlink:href="#o"/>
  <use x="279.515625" y="670.890625" xlink:href="#n"/>
  <use x="308.902344" y="670.890625" xlink:href="#g"/>
  <use x="329.222656" y="670.890625" xlink:href="#c"/>
  <use x="342.894531" y="670.890625" xlink:href="#b"/>
  <use x="361.9375" y="670.890625" xlink:href="#m"/>
  <use x="371.441406" y="670.890625" xlink:href="#a"/>
  <use x="390.242188" y="670.890625" xlink:href="#f"/>
  <use x="406.675781" y="670.890625" xlink:href="#d"/>
 </g>
</svg>
